<?xml version="1.0" standalone="no"?>
<!DOCTYPE svg PUBLIC "-//W3C//DTD SVG 20010904//EN"
 "http://www.w3.org/TR/2001/REC-SVG-20010904/DTD/svg10.dtd">
<svg version="1.0" xmlns="http://www.w3.org/2000/svg"
 width="194.000000pt" height="194.000000pt" viewBox="0 0 194.000000 194.000000"
 preserveAspectRatio="xMidYMid meet">
<metadata>
Created by potrace 1.11, written by Peter Selinger 2001-2013
</metadata>
<g transform="translate(0.000000,194.000000) scale(0.100000,-0.100000)"
fill="#000000" stroke="none">
<path d="M1090 1367 c-91 -26 -172 -97 -213 -186 -32 -69 -31 -208 3 -276 32
-66 99 -131 168 -163 46 -21 72 -26 133 -26 65 -1 84 4 141 32 128 63 194 173
186 313 -8 131 -81 241 -196 291 -57 26 -160 32 -222 15z"/>
<path d="M28 1332 l-26 -3 0 -285 1 -284 193 0 c212 0 197 -4 197 55 0 8 -1
28 -2 45 l-1 29 -122 3 -122 3 -1 43 c-1 23 4 43 10 43 5 1 48 3 95 4 47 1 90
3 95 4 6 0 11 28 11 61 l0 60 -41 1 c-22 0 -69 1 -105 2 l-65 2 -1 35 c0 19 3
40 7 45 5 7 54 10 123 10 64 -1 116 2 117 5 6 38 2 120 -6 121 -44 2 -336 3
-357 1z"/>
<path d="M427 1328 c-7 -4 -10 -98 -10 -285 l1 -278 71 -3 71 -3 0 101 c0 73
3 100 13 100 98 3 139 10 173 29 58 33 87 81 90 149 4 90 -40 155 -121 182
-37 12 -270 19 -288 8z m247 -109 c13 -7 30 -24 36 -39 34 -81 -66 -148 -125
-84 -29 31 -32 70 -7 100 27 34 56 41 96 23z"/>
<path d="M1641 1320 c-61 -20 -84 -39 -109 -91 -23 -46 -21 -117 5 -163 22
-38 90 -72 158 -81 70 -8 83 -13 90 -34 20 -63 -89 -90 -179 -44 -28 15 -30
14 -75 -31 -44 -44 -45 -46 -26 -61 90 -71 267 -77 356 -14 45 32 67 84 64
151 -4 97 -48 138 -169 158 -76 13 -108 32 -99 58 15 43 90 56 147 27 29 -15
30 -15 73 26 49 49 46 60 -25 91 -58 26 -149 29 -211 8z"/>
<path d="M0 610 c0 -60 0 -60 30 -60 22 0 28 4 23 16 -3 8 -12 13 -19 10 -8
-3 -14 1 -14 9 0 8 7 15 15 15 8 0 15 7 15 15 0 9 -6 12 -15 9 -8 -4 -15 -1
-15 5 0 6 7 11 15 11 8 0 15 7 15 15 0 9 -9 15 -25 15 -24 0 -25 -3 -25 -60z"/>
<path d="M69 627 c-5 -55 4 -77 32 -77 28 0 35 24 30 105 -1 15 -3 17 -10 7
-4 -8 -7 -28 -5 -45 4 -34 -10 -66 -23 -54 -4 5 -10 32 -13 60 l-6 52 -5 -48z"/>
<path d="M149 665 c-2 -8 -1 -53 1 -87 2 -29 3 -30 8 -10 7 23 26 31 28 12 1
-5 2 -15 3 -21 0 -5 5 -8 11 -4 6 3 6 15 0 29 -5 13 -6 27 -2 31 4 3 12 -9 18
-27 18 -56 74 -46 74 14 0 60 -37 89 -62 48 -7 -11 -16 -20 -19 -20 -4 0 -9 9
-12 20 -4 17 -45 30 -48 15z m39 -32 c-2 -10 -7 -18 -12 -18 -5 0 -10 8 -12
18 -1 9 4 17 13 17 8 0 13 -7 11 -17z m87 -3 c9 -29 -3 -60 -25 -60 -21 0 -30
27 -19 58 10 27 36 29 44 2z"/>
<path d="M309 668 c-1 -2 -3 -29 -5 -60 -3 -38 0 -58 7 -58 6 0 9 7 5 15 -3 9
4 21 19 31 27 18 32 43 13 62 -10 10 -36 17 -39 10z m34 -24 c8 -8 -3 -34 -14
-34 -5 0 -9 9 -9 20 0 19 11 26 23 14z"/>
<path d="M370 608 c0 -55 1 -58 25 -58 14 0 25 5 25 11 0 5 -5 7 -11 3 -6 -3
-15 0 -20 7 -13 21 -11 26 14 34 21 7 21 7 2 13 -24 8 -31 32 -11 32 8 0 18 4
21 10 4 6 -5 9 -19 8 -25 -2 -26 -5 -26 -60z"/>
<path d="M450 646 c-5 -13 -11 -41 -15 -62 -5 -34 -4 -36 6 -16 15 27 29 28
36 2 3 -11 10 -20 15 -20 5 0 7 8 4 18 -3 9 -10 36 -16 60 -12 48 -17 51 -30
18z m20 -31 c0 -8 -4 -15 -10 -15 -5 0 -7 7 -4 15 4 8 8 15 10 15 2 0 4 -7 4
-15z"/>
<path d="M510 608 c0 -61 10 -78 12 -19 1 40 6 39 24 -4 8 -19 18 -35 22 -35
10 0 8 107 -2 117 -4 5 -7 -3 -6 -17 4 -50 -1 -54 -21 -17 -11 20 -22 37 -24
37 -3 0 -5 -28 -5 -62z"/>
<path d="M597 663 c-4 -3 -7 -30 -7 -60 0 -39 4 -53 14 -53 9 0 12 7 9 19 -3
12 2 20 16 24 12 3 21 12 21 21 0 9 4 16 9 16 5 0 7 -18 6 -40 -3 -40 -3 -40
32 -40 26 0 36 5 40 20 7 27 27 25 42 -2 11 -21 11 -21 5 7 -3 17 -8 41 -11
55 -5 32 -21 48 -27 29 -3 -8 -10 -33 -16 -56 -8 -32 -15 -41 -30 -40 -17 1
-20 9 -20 56 0 48 -2 53 -13 37 -12 -17 -14 -17 -20 -2 -6 16 -38 22 -50 9z
m33 -39 c0 -8 -4 -12 -10 -9 -5 3 -10 10 -10 16 0 5 5 9 10 9 6 0 10 -7 10
-16z m127 -16 c-3 -7 -5 -2 -5 12 0 14 2 19 5 13 2 -7 2 -19 0 -25z"/>
<path d="M790 658 c0 -4 4 -8 9 -8 5 0 9 -12 9 -27 -1 -51 2 -73 10 -73 4 0 6
23 5 50 -2 43 0 50 17 50 14 0 18 -6 15 -20 -5 -24 21 -38 38 -21 8 8 7 11 -6
11 -9 0 -17 7 -17 15 0 8 7 15 15 15 8 0 15 4 15 10 0 5 -25 8 -55 8 -30 -1
-55 -5 -55 -10z"/>
<path d="M933 662 c-33 -21 -21 -112 16 -112 39 0 61 59 36 97 -16 24 -31 28
-52 15z m35 -54 c-4 -40 -24 -47 -31 -11 -6 33 -1 43 19 43 11 0 14 -9 12 -32z"/>
<path d="M1008 610 c-3 -60 -3 -61 22 -58 22 3 25 8 27 43 2 55 -5 75 -27 75
-15 0 -19 -10 -22 -60z m34 25 c0 -5 -5 -11 -11 -13 -6 -2 -11 4 -11 13 0 9 5
15 11 13 6 -2 11 -8 11 -13z m8 -55 c0 -4 -7 -10 -15 -14 -11 -4 -15 2 -15 21
0 21 2 24 15 13 8 -7 15 -16 15 -20z"/>
<path d="M1079 648 c-10 -18 -8 -24 11 -40 24 -20 21 -52 -5 -42 -8 3 -15 1
-15 -5 0 -16 35 -14 49 3 13 16 -1 56 -19 56 -6 0 -10 7 -10 15 0 8 7 15 15
15 8 0 15 5 15 10 0 19 -29 10 -41 -12z"/>
<path d="M1139 660 c-1 -5 -1 -19 -1 -30 0 -77 1 -80 30 -79 27 0 27 1 5 11
-26 12 -33 51 -8 42 8 -4 15 -1 15 5 0 6 -7 11 -15 11 -8 0 -15 7 -15 15 0 8
7 15 15 15 8 0 15 5 15 10 0 6 -9 10 -20 10 -11 0 -20 -4 -21 -10z"/>
<path d="M1201 608 c1 -35 4 -51 6 -35 5 34 21 35 29 2 3 -14 10 -25 14 -25 5
0 5 13 0 29 -4 15 -4 34 0 42 12 18 -7 49 -30 49 -18 0 -20 -7 -19 -62z m37
25 c-2 -10 -7 -18 -12 -18 -5 0 -10 8 -12 18 -1 9 4 17 13 17 8 0 13 -7 11
-17z"/>
<path d="M1263 654 c11 -37 21 -89 19 -96 -1 -5 3 -8 8 -8 10 0 19 15 24 42 2
7 6 26 11 41 4 15 5 30 2 34 -3 3 -12 -17 -20 -43 l-14 -48 -6 41 c-4 23 -12
45 -18 49 -7 4 -9 0 -6 -12z"/>
<path d="M1340 609 c0 -37 4 -59 8 -51 8 12 5 102 -4 111 -2 2 -4 -25 -4 -60z"/>
<path d="M1370 608 c0 -34 3 -58 7 -54 4 4 6 23 5 44 l-2 37 22 -42 c12 -24
25 -43 28 -43 9 0 6 108 -3 116 -4 4 -7 -10 -7 -32 l-1 -39 -20 38 c-11 20
-22 37 -24 37 -3 0 -5 -28 -5 -62z"/>
<path d="M1466 654 c-19 -18 -21 -75 -4 -92 7 -7 22 -12 35 -12 19 0 23 5 23
30 0 22 -5 30 -17 30 -11 0 -14 -3 -8 -8 12 -8 14 -32 3 -32 -5 0 -12 0 -17 0
-12 0 -20 36 -14 60 4 13 14 20 30 20 13 0 21 4 18 10 -9 15 -31 12 -49 -6z"/>
<path d="M1542 658 c-18 -18 -14 -46 8 -58 23 -12 18 -32 -5 -23 -9 3 -15 -1
-15 -11 0 -21 46 -21 54 0 10 25 7 32 -16 54 -18 17 -19 20 -5 20 9 0 17 7 17
15 0 18 -21 20 -38 3z"/>
<path d="M1598 665 c-3 -4 0 -18 8 -33 8 -15 14 -39 14 -54 0 -16 4 -28 8 -28
5 0 8 12 7 27 0 16 5 41 13 56 8 16 11 31 8 35 -4 3 -9 -4 -13 -16 -7 -28 -17
-28 -29 -1 -5 11 -12 17 -16 14z"/>
<path d="M1673 659 c-13 -13 -7 -39 15 -56 19 -16 8 -45 -14 -36 -12 4 -15 3
-10 -5 12 -19 44 -14 51 9 5 14 0 28 -14 43 -25 26 -26 36 -6 36 8 0 15 5 15
10 0 13 -23 13 -37 -1z"/>
<path d="M1720 661 c0 -5 6 -11 14 -14 9 -4 12 -20 11 -51 -2 -25 1 -46 6 -46
5 0 9 23 9 50 0 28 5 50 10 50 6 0 10 5 10 10 0 6 -13 10 -30 10 -16 0 -30 -4
-30 -9z"/>
<path d="M1797 663 c-4 -3 -7 -30 -7 -60 0 -50 1 -53 25 -53 14 0 25 5 25 10
0 6 -3 9 -7 9 -22 -4 -31 3 -29 19 2 9 8 18 14 18 25 3 26 6 5 14 -14 6 -21
15 -17 24 3 8 12 12 20 9 8 -3 14 0 14 6 0 12 -32 15 -43 4z"/>
<path d="M1860 663 c0 -4 -3 -32 -7 -62 -4 -41 -3 -52 7 -46 6 4 10 18 7 31
-6 36 9 29 20 -8 l11 -33 7 33 c9 39 20 42 23 5 4 -49 12 -37 12 20 0 70 -14
80 -33 25 l-14 -43 -7 37 c-6 33 -26 63 -26 41z"/>
<path d="M853 570 c1 -15 8 -20 30 -20 15 0 26 4 22 10 -3 5 -12 7 -20 3 -9
-3 -15 1 -15 11 0 9 -4 16 -9 16 -6 0 -9 -9 -8 -20z"/>
</g>
</svg>
